FFmpeg version SVN-r25716, Copyright (c) 2000-2010 the FFmpeg developers  built on Nov 10 2010 12:23:18 with gcc 4.1.2 20080704 (Red Hat 4.1.2-48)  configuration: --enable-libmp3lame --enable-shared --disable-mmx --arch=x86_64  libavutil     50.33. 0 / 50.33. 0  libavcore      0.12. 1 /  0.12. 1  libavcodec    52.94. 4 / 52.94. 4  libavformat   52.84. 0 / 52.84. 0  libavdevice   52. 2. 2 / 52. 2. 2  libavfilter    1.59. 0 /  1.59. 0  libswscale     0.12. 0 /  0.12. 0Seems stream 0 codec frame rate differs from container frame rate: 49152.00 (49152/1) -> 12.00 (12/1)Input #0, mov,mp4,m4a,3gp,3g2,mj2, from '/RAID10/data/converted_video_files/9775.mov':  Metadata:    major_brand     : qt      minor_version   : 537199360    compatible_brands: qt    Duration: 00:01:13.00, start: 0.000000, bitrate: 2337 kb/s    Stream #0.0(eng): Video: h264, yuv420p, 640x480, 2336 kb/s, 12 fps, 12 tbr, 24576 tbn, 49152 tbc[buffer @ 0x7979f00] w:640 h:480 pixfmt:yuv420pOutput #0, flv, to '/RAID10/data/converted_video_files/9775.flv':  Metadata:    encoder         : Lavf52.84.0    Stream #0.0(eng): Video: flv, yuv420p, 640x480, q=2-31, 600 kb/s, 1k tbn, 24 tbcStream mapping:  Stream #0.0 -> #0.0Press [q] to stop encodingframe=   50 fps=  0 q=8.0 size=     438kB time=4.12 bitrate= 869.2kbits/s    frame=   94 fps= 92 q=9.4 size=     649kB time=7.79 bitrate= 682.1kbits/s    frame=  137 fps= 90 q=8.5 size=     870kB time=11.37 bitrate= 626.4kbits/s    frame=  193 fps= 95 q=2.6 size=    1207kB time=16.04 bitrate= 616.3kbits/s    frame=  243 fps= 96 q=7.3 size=    1498kB time=20.21 bitrate= 607.1kbits/s    frame=  297 fps= 98 q=7.3 size=    1809kB time=24.71 bitrate= 599.8kbits/s    frame=  345 fps= 98 q=3.0 size=    2071kB time=28.71 bitrate= 590.9kbits/s    frame=  380 fps= 94 q=8.7 size=    2335kB time=31.62 bitrate= 605.0kbits/s    frame=  425 fps= 93 q=3.8 size=    2605kB time=35.37 bitrate= 603.3kbits/s    frame=  477 fps= 94 q=4.5 size=    2856kB time=39.71 bitrate= 589.3kbits/s    frame=  533 fps= 96 q=4.6 size=    3177kB time=44.37 bitrate= 586.5kbits/s    frame=  591 fps= 97 q=3.5 size=    3491kB time=49.21 bitrate= 581.2kbits/s    frame=  633 fps= 96 q=3.7 size=    3757kB time=52.71 bitrate= 583.8kbits/s    frame=  678 fps= 96 q=3.4 size=    4044kB time=56.46 bitrate= 586.8kbits/s    frame=  726 fps= 96 q=3.8 size=    4367kB time=60.46 bitrate= 591.8kbits/s    frame=  768 fps= 95 q=3.5 size=    4612kB time=63.96 bitrate= 590.7kbits/s    frame=  817 fps= 95 q=2.9 size=    4949kB time=68.04 bitrate= 595.9kbits/s    frame=  865 fps= 95 q=2.5 size=    5240kB time=72.04 bitrate= 595.9kbits/s    frame=  876 fps= 95 q=8.4 Lsize=    5407kB time=72.96 bitrate= 607.1kbits/s    video:5393kB audio:0kB global headers:0kB muxing overhead 0.257605%